<mxfile host="app.diagrams.net" modified="2023-11-12T13:36:38.486Z" agent="Mozilla/5.0 (Windows NT 10.0; Win64; x64) AppleWebKit/537.36 (KHTML, like Gecko) Chrome/119.0.0.0 Safari/537.36" etag="CN1_4fxXJC8XtLA-wgGs" version="22.1.0" type="github">
  <diagram name="Страница — 1" id="UIwuyxUuAgWcMKRViX4k">
    <mxGraphModel dx="2001" dy="733" grid="1" gridSize="10" guides="1" tooltips="1" connect="1" arrows="1" fold="1" page="1" pageScale="1" pageWidth="827" pageHeight="1169" math="0" shadow="0">
      <root>
        <mxCell id="0" />
        <mxCell id="1" parent="0" />
        <mxCell id="mFbKZ_o9LPMVzAf8WOri-20" value="Марка" style="ellipse;whiteSpace=wrap;html=1;" vertex="1" parent="1">
          <mxGeometry x="19.5" y="519" width="80" height="40" as="geometry" />
        </mxCell>
        <mxCell id="mFbKZ_o9LPMVzAf8WOri-21" value="Модель" style="ellipse;whiteSpace=wrap;html=1;" vertex="1" parent="1">
          <mxGeometry x="119.5" y="519" width="80" height="40" as="geometry" />
        </mxCell>
        <mxCell id="mFbKZ_o9LPMVzAf8WOri-117" style="edgeStyle=orthogonalEdgeStyle;rounded=0;orthogonalLoop=1;jettySize=auto;html=1;exitX=0.5;exitY=1;exitDx=0;exitDy=0;entryX=0.5;entryY=0;entryDx=0;entryDy=0;endArrow=none;endFill=0;" edge="1" parent="1" source="mFbKZ_o9LPMVzAf8WOri-25" target="mFbKZ_o9LPMVzAf8WOri-21">
          <mxGeometry relative="1" as="geometry" />
        </mxCell>
        <mxCell id="mFbKZ_o9LPMVzAf8WOri-118" style="edgeStyle=orthogonalEdgeStyle;rounded=0;orthogonalLoop=1;jettySize=auto;html=1;exitX=0.5;exitY=1;exitDx=0;exitDy=0;entryX=0.5;entryY=0;entryDx=0;entryDy=0;endArrow=none;endFill=0;" edge="1" parent="1" source="mFbKZ_o9LPMVzAf8WOri-25" target="mFbKZ_o9LPMVzAf8WOri-30">
          <mxGeometry relative="1" as="geometry">
            <Array as="points">
              <mxPoint x="160" y="500" />
              <mxPoint x="260" y="500" />
            </Array>
          </mxGeometry>
        </mxCell>
        <mxCell id="mFbKZ_o9LPMVzAf8WOri-119" style="edgeStyle=orthogonalEdgeStyle;rounded=0;orthogonalLoop=1;jettySize=auto;html=1;exitX=0.5;exitY=1;exitDx=0;exitDy=0;entryX=0.5;entryY=0;entryDx=0;entryDy=0;endArrow=none;endFill=0;" edge="1" parent="1" source="mFbKZ_o9LPMVzAf8WOri-25" target="mFbKZ_o9LPMVzAf8WOri-20">
          <mxGeometry relative="1" as="geometry">
            <Array as="points">
              <mxPoint x="160" y="500" />
              <mxPoint x="60" y="500" />
            </Array>
          </mxGeometry>
        </mxCell>
        <mxCell id="mFbKZ_o9LPMVzAf8WOri-25" value="&lt;span style=&quot;white-space: pre;&quot;&gt;&#x9;&lt;/span&gt;Автомобиль" style="rounded=0;whiteSpace=wrap;html=1;" vertex="1" parent="1">
          <mxGeometry x="99.5" y="440" width="120" height="40" as="geometry" />
        </mxCell>
        <mxCell id="mFbKZ_o9LPMVzAf8WOri-110" style="edgeStyle=orthogonalEdgeStyle;rounded=0;orthogonalLoop=1;jettySize=auto;html=1;exitX=0;exitY=0.5;exitDx=0;exitDy=0;entryX=1;entryY=0.5;entryDx=0;entryDy=0;endArrow=blockThin;endFill=1;" edge="1" parent="1" source="mFbKZ_o9LPMVzAf8WOri-26" target="mFbKZ_o9LPMVzAf8WOri-28">
          <mxGeometry relative="1" as="geometry" />
        </mxCell>
        <mxCell id="mFbKZ_o9LPMVzAf8WOri-112" style="edgeStyle=orthogonalEdgeStyle;rounded=0;orthogonalLoop=1;jettySize=auto;html=1;exitX=0.5;exitY=1;exitDx=0;exitDy=0;entryX=0.5;entryY=0;entryDx=0;entryDy=0;endArrow=doubleBlock;endFill=1;" edge="1" parent="1" source="mFbKZ_o9LPMVzAf8WOri-26" target="mFbKZ_o9LPMVzAf8WOri-25">
          <mxGeometry relative="1" as="geometry" />
        </mxCell>
        <mxCell id="mFbKZ_o9LPMVzAf8WOri-26" value="Владеет" style="rhombus;whiteSpace=wrap;html=1;" vertex="1" parent="1">
          <mxGeometry x="122" y="360" width="75" height="40" as="geometry" />
        </mxCell>
        <mxCell id="mFbKZ_o9LPMVzAf8WOri-28" value="Клиент" style="rounded=0;whiteSpace=wrap;html=1;" vertex="1" parent="1">
          <mxGeometry y="360" width="80" height="40" as="geometry" />
        </mxCell>
        <mxCell id="mFbKZ_o9LPMVzAf8WOri-30" value="Гос. номер" style="ellipse;whiteSpace=wrap;html=1;" vertex="1" parent="1">
          <mxGeometry x="220" y="519" width="80" height="40" as="geometry" />
        </mxCell>
        <mxCell id="mFbKZ_o9LPMVzAf8WOri-106" style="edgeStyle=orthogonalEdgeStyle;rounded=0;orthogonalLoop=1;jettySize=auto;html=1;exitX=1;exitY=0.5;exitDx=0;exitDy=0;entryX=0;entryY=0.5;entryDx=0;entryDy=0;endArrow=none;endFill=0;" edge="1" parent="1" source="mFbKZ_o9LPMVzAf8WOri-32" target="mFbKZ_o9LPMVzAf8WOri-28">
          <mxGeometry relative="1" as="geometry" />
        </mxCell>
        <mxCell id="mFbKZ_o9LPMVzAf8WOri-32" value="Фамилия" style="ellipse;whiteSpace=wrap;html=1;" vertex="1" parent="1">
          <mxGeometry x="-120" y="270" width="80" height="40" as="geometry" />
        </mxCell>
        <mxCell id="mFbKZ_o9LPMVzAf8WOri-107" style="edgeStyle=orthogonalEdgeStyle;rounded=0;orthogonalLoop=1;jettySize=auto;html=1;exitX=1;exitY=0.5;exitDx=0;exitDy=0;entryX=0;entryY=0.5;entryDx=0;entryDy=0;endArrow=none;endFill=0;" edge="1" parent="1" source="mFbKZ_o9LPMVzAf8WOri-34" target="mFbKZ_o9LPMVzAf8WOri-28">
          <mxGeometry relative="1" as="geometry" />
        </mxCell>
        <mxCell id="mFbKZ_o9LPMVzAf8WOri-34" value="Имя" style="ellipse;whiteSpace=wrap;html=1;" vertex="1" parent="1">
          <mxGeometry x="-120" y="330" width="80" height="40" as="geometry" />
        </mxCell>
        <mxCell id="mFbKZ_o9LPMVzAf8WOri-108" style="edgeStyle=orthogonalEdgeStyle;rounded=0;orthogonalLoop=1;jettySize=auto;html=1;exitX=1;exitY=0.5;exitDx=0;exitDy=0;entryX=0;entryY=0.5;entryDx=0;entryDy=0;endArrow=none;endFill=0;" edge="1" parent="1" source="mFbKZ_o9LPMVzAf8WOri-36" target="mFbKZ_o9LPMVzAf8WOri-28">
          <mxGeometry relative="1" as="geometry" />
        </mxCell>
        <mxCell id="mFbKZ_o9LPMVzAf8WOri-36" value="Отчество" style="ellipse;whiteSpace=wrap;html=1;" vertex="1" parent="1">
          <mxGeometry x="-120" y="390" width="80" height="40" as="geometry" />
        </mxCell>
        <mxCell id="mFbKZ_o9LPMVzAf8WOri-109" style="edgeStyle=orthogonalEdgeStyle;rounded=0;orthogonalLoop=1;jettySize=auto;html=1;exitX=1;exitY=0.5;exitDx=0;exitDy=0;entryX=0;entryY=0.5;entryDx=0;entryDy=0;endArrow=none;endFill=0;" edge="1" parent="1" source="mFbKZ_o9LPMVzAf8WOri-38" target="mFbKZ_o9LPMVzAf8WOri-28">
          <mxGeometry relative="1" as="geometry" />
        </mxCell>
        <mxCell id="mFbKZ_o9LPMVzAf8WOri-38" value="Номер телефона" style="ellipse;whiteSpace=wrap;html=1;" vertex="1" parent="1">
          <mxGeometry x="-120" y="450" width="80" height="40" as="geometry" />
        </mxCell>
        <mxCell id="mFbKZ_o9LPMVzAf8WOri-59" value="Время оказания" style="ellipse;whiteSpace=wrap;html=1;" vertex="1" parent="1">
          <mxGeometry x="420" y="518" width="80" height="40" as="geometry" />
        </mxCell>
        <mxCell id="mFbKZ_o9LPMVzAf8WOri-70" value="" style="endArrow=none;html=1;rounded=0;entryX=0.25;entryY=0;entryDx=0;entryDy=0;exitX=0.25;exitY=1;exitDx=0;exitDy=0;" edge="1" parent="1" source="mFbKZ_o9LPMVzAf8WOri-25" target="mFbKZ_o9LPMVzAf8WOri-25">
          <mxGeometry width="50" height="50" relative="1" as="geometry">
            <mxPoint x="128.5" y="520" as="sourcePoint" />
            <mxPoint x="178.5" y="470" as="targetPoint" />
          </mxGeometry>
        </mxCell>
        <mxCell id="mFbKZ_o9LPMVzAf8WOri-71" value="" style="shape=ellipse;fillColor=#000000;strokeColor=none;html=1;sketch=0;" vertex="1" parent="1">
          <mxGeometry x="108.5" y="455" width="10" height="10" as="geometry" />
        </mxCell>
        <mxCell id="mFbKZ_o9LPMVzAf8WOri-121" style="edgeStyle=orthogonalEdgeStyle;rounded=0;orthogonalLoop=1;jettySize=auto;html=1;exitX=0.5;exitY=1;exitDx=0;exitDy=0;entryX=0.5;entryY=0;entryDx=0;entryDy=0;endArrow=none;endFill=0;" edge="1" parent="1" source="mFbKZ_o9LPMVzAf8WOri-72" target="mFbKZ_o9LPMVzAf8WOri-59">
          <mxGeometry relative="1" as="geometry" />
        </mxCell>
        <mxCell id="mFbKZ_o9LPMVzAf8WOri-72" value="Оказываемая услуга" style="rounded=0;whiteSpace=wrap;html=1;" vertex="1" parent="1">
          <mxGeometry x="420" y="440" width="80" height="40" as="geometry" />
        </mxCell>
        <mxCell id="mFbKZ_o9LPMVzAf8WOri-113" style="edgeStyle=orthogonalEdgeStyle;rounded=0;orthogonalLoop=1;jettySize=auto;html=1;exitX=0;exitY=0.5;exitDx=0;exitDy=0;entryX=1;entryY=0.5;entryDx=0;entryDy=0;endArrow=block;endFill=1;" edge="1" parent="1" source="mFbKZ_o9LPMVzAf8WOri-75" target="mFbKZ_o9LPMVzAf8WOri-25">
          <mxGeometry relative="1" as="geometry" />
        </mxCell>
        <mxCell id="mFbKZ_o9LPMVzAf8WOri-114" style="edgeStyle=orthogonalEdgeStyle;rounded=0;orthogonalLoop=1;jettySize=auto;html=1;exitX=1;exitY=0.5;exitDx=0;exitDy=0;entryX=0;entryY=0.5;entryDx=0;entryDy=0;endArrow=block;endFill=1;" edge="1" parent="1" source="mFbKZ_o9LPMVzAf8WOri-75" target="mFbKZ_o9LPMVzAf8WOri-72">
          <mxGeometry relative="1" as="geometry" />
        </mxCell>
        <mxCell id="mFbKZ_o9LPMVzAf8WOri-75" value="Оказывается" style="rhombus;whiteSpace=wrap;html=1;" vertex="1" parent="1">
          <mxGeometry x="270" y="440" width="100" height="40" as="geometry" />
        </mxCell>
        <mxCell id="mFbKZ_o9LPMVzAf8WOri-122" style="edgeStyle=orthogonalEdgeStyle;rounded=0;orthogonalLoop=1;jettySize=auto;html=1;exitX=0.5;exitY=0;exitDx=0;exitDy=0;entryX=0.5;entryY=1;entryDx=0;entryDy=0;endArrow=none;endFill=0;" edge="1" parent="1" source="mFbKZ_o9LPMVzAf8WOri-89" target="mFbKZ_o9LPMVzAf8WOri-90">
          <mxGeometry relative="1" as="geometry">
            <Array as="points">
              <mxPoint x="460" y="259" />
              <mxPoint x="310" y="259" />
            </Array>
          </mxGeometry>
        </mxCell>
        <mxCell id="mFbKZ_o9LPMVzAf8WOri-123" style="edgeStyle=orthogonalEdgeStyle;rounded=0;orthogonalLoop=1;jettySize=auto;html=1;exitX=0.5;exitY=0;exitDx=0;exitDy=0;entryX=0.5;entryY=1;entryDx=0;entryDy=0;endArrow=none;endFill=0;" edge="1" parent="1" source="mFbKZ_o9LPMVzAf8WOri-89" target="mFbKZ_o9LPMVzAf8WOri-93">
          <mxGeometry relative="1" as="geometry">
            <Array as="points">
              <mxPoint x="460" y="259" />
              <mxPoint x="610" y="259" />
            </Array>
          </mxGeometry>
        </mxCell>
        <mxCell id="mFbKZ_o9LPMVzAf8WOri-124" style="edgeStyle=orthogonalEdgeStyle;rounded=0;orthogonalLoop=1;jettySize=auto;html=1;exitX=0.5;exitY=0;exitDx=0;exitDy=0;entryX=0.5;entryY=1;entryDx=0;entryDy=0;endArrow=none;endFill=0;" edge="1" parent="1" source="mFbKZ_o9LPMVzAf8WOri-89" target="mFbKZ_o9LPMVzAf8WOri-92">
          <mxGeometry relative="1" as="geometry" />
        </mxCell>
        <mxCell id="mFbKZ_o9LPMVzAf8WOri-125" style="edgeStyle=orthogonalEdgeStyle;rounded=0;orthogonalLoop=1;jettySize=auto;html=1;exitX=0.5;exitY=0;exitDx=0;exitDy=0;entryX=0.5;entryY=1;entryDx=0;entryDy=0;endArrow=none;endFill=0;" edge="1" parent="1" source="mFbKZ_o9LPMVzAf8WOri-89" target="mFbKZ_o9LPMVzAf8WOri-91">
          <mxGeometry relative="1" as="geometry" />
        </mxCell>
        <mxCell id="mFbKZ_o9LPMVzAf8WOri-89" value="Услуга" style="rounded=0;whiteSpace=wrap;html=1;" vertex="1" parent="1">
          <mxGeometry x="420" y="279" width="80" height="40" as="geometry" />
        </mxCell>
        <mxCell id="mFbKZ_o9LPMVzAf8WOri-90" value="Название" style="ellipse;whiteSpace=wrap;html=1;" vertex="1" parent="1">
          <mxGeometry x="270" y="200" width="80" height="40" as="geometry" />
        </mxCell>
        <mxCell id="mFbKZ_o9LPMVzAf8WOri-91" value="Длительность" style="ellipse;whiteSpace=wrap;html=1;" vertex="1" parent="1">
          <mxGeometry x="370" y="200" width="80" height="40" as="geometry" />
        </mxCell>
        <mxCell id="mFbKZ_o9LPMVzAf8WOri-92" value="Стоимость" style="ellipse;whiteSpace=wrap;html=1;" vertex="1" parent="1">
          <mxGeometry x="470" y="200" width="80" height="40" as="geometry" />
        </mxCell>
        <mxCell id="mFbKZ_o9LPMVzAf8WOri-93" value="Тип" style="ellipse;whiteSpace=wrap;html=1;" vertex="1" parent="1">
          <mxGeometry x="570" y="200" width="80" height="40" as="geometry" />
        </mxCell>
        <mxCell id="mFbKZ_o9LPMVzAf8WOri-120" style="edgeStyle=orthogonalEdgeStyle;rounded=0;orthogonalLoop=1;jettySize=auto;html=1;exitX=0.5;exitY=0;exitDx=0;exitDy=0;entryX=0.5;entryY=1;entryDx=0;entryDy=0;endArrow=block;endFill=1;" edge="1" parent="1" source="mFbKZ_o9LPMVzAf8WOri-94" target="mFbKZ_o9LPMVzAf8WOri-89">
          <mxGeometry relative="1" as="geometry" />
        </mxCell>
        <mxCell id="mFbKZ_o9LPMVzAf8WOri-126" style="edgeStyle=orthogonalEdgeStyle;rounded=0;orthogonalLoop=1;jettySize=auto;html=1;exitX=0.5;exitY=1;exitDx=0;exitDy=0;entryX=0.5;entryY=0;entryDx=0;entryDy=0;endArrow=block;endFill=1;" edge="1" parent="1" source="mFbKZ_o9LPMVzAf8WOri-94" target="mFbKZ_o9LPMVzAf8WOri-72">
          <mxGeometry relative="1" as="geometry" />
        </mxCell>
        <mxCell id="mFbKZ_o9LPMVzAf8WOri-94" value="Содержит" style="rhombus;whiteSpace=wrap;html=1;" vertex="1" parent="1">
          <mxGeometry x="410" y="358" width="100" height="40" as="geometry" />
        </mxCell>
        <mxCell id="mFbKZ_o9LPMVzAf8WOri-127" style="edgeStyle=orthogonalEdgeStyle;rounded=0;orthogonalLoop=1;jettySize=auto;html=1;exitX=1;exitY=0.5;exitDx=0;exitDy=0;entryX=0;entryY=0.5;entryDx=0;entryDy=0;endArrow=none;endFill=0;" edge="1" parent="1" source="mFbKZ_o9LPMVzAf8WOri-95" target="mFbKZ_o9LPMVzAf8WOri-96">
          <mxGeometry relative="1" as="geometry" />
        </mxCell>
        <mxCell id="mFbKZ_o9LPMVzAf8WOri-128" style="edgeStyle=orthogonalEdgeStyle;rounded=0;orthogonalLoop=1;jettySize=auto;html=1;exitX=1;exitY=0.5;exitDx=0;exitDy=0;entryX=0;entryY=0.5;entryDx=0;entryDy=0;endArrow=none;endFill=0;" edge="1" parent="1" source="mFbKZ_o9LPMVzAf8WOri-95" target="mFbKZ_o9LPMVzAf8WOri-103">
          <mxGeometry relative="1" as="geometry" />
        </mxCell>
        <mxCell id="mFbKZ_o9LPMVzAf8WOri-129" style="edgeStyle=orthogonalEdgeStyle;rounded=0;orthogonalLoop=1;jettySize=auto;html=1;exitX=1;exitY=0.5;exitDx=0;exitDy=0;entryX=0;entryY=0.5;entryDx=0;entryDy=0;endArrow=none;endFill=0;" edge="1" parent="1" source="mFbKZ_o9LPMVzAf8WOri-95" target="mFbKZ_o9LPMVzAf8WOri-97">
          <mxGeometry relative="1" as="geometry" />
        </mxCell>
        <mxCell id="mFbKZ_o9LPMVzAf8WOri-130" style="edgeStyle=orthogonalEdgeStyle;rounded=0;orthogonalLoop=1;jettySize=auto;html=1;exitX=1;exitY=0.5;exitDx=0;exitDy=0;entryX=0;entryY=0.5;entryDx=0;entryDy=0;endArrow=none;endFill=0;" edge="1" parent="1" source="mFbKZ_o9LPMVzAf8WOri-95" target="mFbKZ_o9LPMVzAf8WOri-102">
          <mxGeometry relative="1" as="geometry" />
        </mxCell>
        <mxCell id="mFbKZ_o9LPMVzAf8WOri-131" style="edgeStyle=orthogonalEdgeStyle;rounded=0;orthogonalLoop=1;jettySize=auto;html=1;exitX=1;exitY=0.5;exitDx=0;exitDy=0;entryX=0;entryY=0.5;entryDx=0;entryDy=0;endArrow=none;endFill=0;" edge="1" parent="1" source="mFbKZ_o9LPMVzAf8WOri-95" target="mFbKZ_o9LPMVzAf8WOri-98">
          <mxGeometry relative="1" as="geometry" />
        </mxCell>
        <mxCell id="mFbKZ_o9LPMVzAf8WOri-132" style="edgeStyle=orthogonalEdgeStyle;rounded=0;orthogonalLoop=1;jettySize=auto;html=1;exitX=1;exitY=0.5;exitDx=0;exitDy=0;entryX=0;entryY=0.5;entryDx=0;entryDy=0;endArrow=none;endFill=0;" edge="1" parent="1" source="mFbKZ_o9LPMVzAf8WOri-95" target="mFbKZ_o9LPMVzAf8WOri-101">
          <mxGeometry relative="1" as="geometry" />
        </mxCell>
        <mxCell id="mFbKZ_o9LPMVzAf8WOri-133" style="edgeStyle=orthogonalEdgeStyle;rounded=0;orthogonalLoop=1;jettySize=auto;html=1;exitX=1;exitY=0.5;exitDx=0;exitDy=0;entryX=0;entryY=0.5;entryDx=0;entryDy=0;endArrow=none;endFill=0;" edge="1" parent="1" source="mFbKZ_o9LPMVzAf8WOri-95" target="mFbKZ_o9LPMVzAf8WOri-100">
          <mxGeometry relative="1" as="geometry" />
        </mxCell>
        <mxCell id="mFbKZ_o9LPMVzAf8WOri-134" style="edgeStyle=orthogonalEdgeStyle;rounded=0;orthogonalLoop=1;jettySize=auto;html=1;exitX=1;exitY=0.5;exitDx=0;exitDy=0;entryX=0;entryY=0.5;entryDx=0;entryDy=0;endArrow=none;endFill=0;" edge="1" parent="1" source="mFbKZ_o9LPMVzAf8WOri-95" target="mFbKZ_o9LPMVzAf8WOri-99">
          <mxGeometry relative="1" as="geometry" />
        </mxCell>
        <mxCell id="mFbKZ_o9LPMVzAf8WOri-95" value="Сотрудник" style="rounded=0;whiteSpace=wrap;html=1;" vertex="1" parent="1">
          <mxGeometry x="700" y="440" width="80" height="40" as="geometry" />
        </mxCell>
        <mxCell id="mFbKZ_o9LPMVzAf8WOri-96" value="Фамилия" style="ellipse;whiteSpace=wrap;html=1;" vertex="1" parent="1">
          <mxGeometry x="820" y="230" width="80" height="40" as="geometry" />
        </mxCell>
        <mxCell id="mFbKZ_o9LPMVzAf8WOri-97" value="Имя" style="ellipse;whiteSpace=wrap;html=1;" vertex="1" parent="1">
          <mxGeometry x="820" y="290" width="80" height="40" as="geometry" />
        </mxCell>
        <mxCell id="mFbKZ_o9LPMVzAf8WOri-98" value="Отчество" style="ellipse;whiteSpace=wrap;html=1;" vertex="1" parent="1">
          <mxGeometry x="820" y="350" width="80" height="40" as="geometry" />
        </mxCell>
        <mxCell id="mFbKZ_o9LPMVzAf8WOri-99" value="Номер телефона" style="ellipse;whiteSpace=wrap;html=1;" vertex="1" parent="1">
          <mxGeometry x="820" y="410" width="80" height="40" as="geometry" />
        </mxCell>
        <mxCell id="mFbKZ_o9LPMVzAf8WOri-100" value="Город" style="ellipse;whiteSpace=wrap;html=1;" vertex="1" parent="1">
          <mxGeometry x="820" y="470" width="80" height="40" as="geometry" />
        </mxCell>
        <mxCell id="mFbKZ_o9LPMVzAf8WOri-101" value="Улица" style="ellipse;whiteSpace=wrap;html=1;" vertex="1" parent="1">
          <mxGeometry x="820" y="530" width="80" height="40" as="geometry" />
        </mxCell>
        <mxCell id="mFbKZ_o9LPMVzAf8WOri-102" value="Номер дома" style="ellipse;whiteSpace=wrap;html=1;" vertex="1" parent="1">
          <mxGeometry x="820" y="590" width="80" height="40" as="geometry" />
        </mxCell>
        <mxCell id="mFbKZ_o9LPMVzAf8WOri-103" value="Номер квартиры" style="ellipse;whiteSpace=wrap;html=1;" vertex="1" parent="1">
          <mxGeometry x="820" y="650" width="80" height="40" as="geometry" />
        </mxCell>
        <mxCell id="mFbKZ_o9LPMVzAf8WOri-115" style="edgeStyle=orthogonalEdgeStyle;rounded=0;orthogonalLoop=1;jettySize=auto;html=1;exitX=0;exitY=0.5;exitDx=0;exitDy=0;entryX=1;entryY=0.5;entryDx=0;entryDy=0;endArrow=block;endFill=1;" edge="1" parent="1" source="mFbKZ_o9LPMVzAf8WOri-104" target="mFbKZ_o9LPMVzAf8WOri-72">
          <mxGeometry relative="1" as="geometry" />
        </mxCell>
        <mxCell id="mFbKZ_o9LPMVzAf8WOri-116" style="edgeStyle=orthogonalEdgeStyle;rounded=0;orthogonalLoop=1;jettySize=auto;html=1;exitX=1;exitY=0.5;exitDx=0;exitDy=0;entryX=0;entryY=0.5;entryDx=0;entryDy=0;endArrow=block;endFill=1;" edge="1" parent="1" source="mFbKZ_o9LPMVzAf8WOri-104" target="mFbKZ_o9LPMVzAf8WOri-95">
          <mxGeometry relative="1" as="geometry" />
        </mxCell>
        <mxCell id="mFbKZ_o9LPMVzAf8WOri-104" value="Выполняется" style="rhombus;whiteSpace=wrap;html=1;" vertex="1" parent="1">
          <mxGeometry x="550" y="440" width="100" height="40" as="geometry" />
        </mxCell>
      </root>
    </mxGraphModel>
  </diagram>
</mxfile>
